<?xml version="1.0" encoding="UTF-8" standalone="no"?>
<svg
   id="Icons"
   viewBox="0 0 48 48"
   version="1.1"
   sodipodi:docname="melon.svg"
   width="48"
   height="48"
   inkscape:version="1.2.2 (b0a8486541, 2022-12-01)"
   xmlns:inkscape="http://www.inkscape.org/namespaces/inkscape"
   xmlns:sodipodi="http://sodipodi.sourceforge.net/DTD/sodipodi-0.dtd"
   xmlns="http://www.w3.org/2000/svg"
   xmlns:svg="http://www.w3.org/2000/svg"
   xmlns:rdf="http://www.w3.org/1999/02/22-rdf-syntax-ns#"
   xmlns:cc="http://creativecommons.org/ns#"
   xmlns:dc="http://purl.org/dc/elements/1.1/">
  <sodipodi:namedview
     id="namedview14"
     pagecolor="#ffffff"
     bordercolor="#666666"
     borderopacity="1.0"
     inkscape:showpageshadow="2"
     inkscape:pageopacity="0.0"
     inkscape:pagecheckerboard="0"
     inkscape:deskcolor="#d1d1d1"
     showgrid="false"
     inkscape:zoom="1"
     inkscape:cx="24.5"
     inkscape:cy="-136"
     inkscape:window-width="3840"
     inkscape:window-height="2076"
     inkscape:window-x="0"
     inkscape:window-y="0"
     inkscape:window-maximized="1"
     inkscape:current-layer="Icons" />
  <defs
     id="defs4">
    <style
       id="style2">.cls-1{fill:#45413c;opacity:0.15;}.cls-2{fill:#9ceb60;}.cls-2,.cls-3,.cls-4{stroke:#45413c;stroke-linecap:round;stroke-linejoin:round;}.cls-3{fill:#ffaa54;}.cls-4{fill:#ff8a14;}</style>
  </defs>
  <title
     id="title6">521-melon-1</title>
  <g
     id="_Group_"
     data-name="&lt;Group&gt;">
    <ellipse
       id="_Ellipse_"
       data-name="&lt;Ellipse&gt;"
       class="cls-1"
       cx="25.84"
       cy="42.189999"
       rx="13.24"
       ry="1.8099999" />
    <path
       id="_Path_"
       data-name="&lt;Path&gt;"
       class="cls-2"
       d="m 43.41,8.94 -6.58,1.19 a 14.62,14.62 0 0 1 -26.16,8.25 l -8.8,3.85 A 22.16,22.16 0 1 0 43.41,8.94 Z" />
    <path
       id="_Path_2"
       data-name="&lt;Path&gt;"
       class="cls-3"
       d="M 43.3,18.12 A 19.58,19.58 0 0 0 41.22,9.34 l -4.39,0.79 A 14.62,14.62 0 0 1 10.67,18.38 L 4.06,21.27 A 19.75,19.75 0 0 0 43.3,18.12 Z" />
    <path
       id="_Path_3"
       data-name="&lt;Path&gt;"
       class="cls-4"
       d="m 33.51,26.4 c 7.3,-5.19 3.32,-16.27 3.32,-16.27 a 14.62,14.62 0 0 1 -26.16,8.25 c 0,0 9.33,17.62 22.84,8.02 z" />
  </g>
  <metadata
     id="metadata243">
    <rdf:RDF>
      <cc:Work
         rdf:about="">
        <dc:title>521-melon-1</dc:title>
      </cc:Work>
    </rdf:RDF>
  </metadata>
</svg>
