<?xml version="1.0" encoding="UTF-8" standalone="no"?>
<!-- Created with Inkscape (http://www.inkscape.org/) -->

<svg
   width="127.43515mm"
   height="128.50984mm"
   viewBox="0 0 127.43515 128.50984"
   version="1.1"
   id="svg2754"
   xml:space="preserve"
   inkscape:version="1.2.2 (b0a8486541, 2022-12-01)"
   sodipodi:docname="profile.svg"
   xmlns:inkscape="http://www.inkscape.org/namespaces/inkscape"
   xmlns:sodipodi="http://sodipodi.sourceforge.net/DTD/sodipodi-0.dtd"
   xmlns:xlink="http://www.w3.org/1999/xlink"
   xmlns="http://www.w3.org/2000/svg"
   xmlns:svg="http://www.w3.org/2000/svg"><sodipodi:namedview
     id="namedview2756"
     pagecolor="#ffffff"
     bordercolor="#666666"
     borderopacity="1.0"
     inkscape:showpageshadow="2"
     inkscape:pageopacity="0.0"
     inkscape:pagecheckerboard="0"
     inkscape:deskcolor="#d1d1d1"
     inkscape:document-units="mm"
     showgrid="false"
     inkscape:zoom="3.248131"
     inkscape:cx="230.44022"
     inkscape:cy="244.1404"
     inkscape:window-width="3840"
     inkscape:window-height="2076"
     inkscape:window-x="0"
     inkscape:window-y="0"
     inkscape:window-maximized="1"
     inkscape:current-layer="layer2" /><defs
     id="defs2751"><linearGradient
       inkscape:collect="always"
       xlink:href="#linearGradient5315"
       id="linearGradient5317"
       x1="78.882088"
       y1="195.44943"
       x2="139.84076"
       y2="92.56041"
       gradientUnits="userSpaceOnUse"
       gradientTransform="matrix(0.98754701,0,0,0.98143973,-45.329176,-46.204165)" /><linearGradient
       inkscape:collect="always"
       id="linearGradient5315"><stop
         style="stop-color:#ff5c86;stop-opacity:1;"
         offset="0"
         id="stop5311" /><stop
         style="stop-color:#ff5ca7;stop-opacity:1;"
         offset="0.56700623"
         id="stop5313" /><stop
         style="stop-color:#ff4682;stop-opacity:1;"
         offset="1"
         id="stop5319" /></linearGradient></defs><g
     inkscape:label="Layer 1"
     inkscape:groupmode="layer"
     id="layer1"
     transform="translate(-10.626741,-11.694052)"
     style="display:inline"><ellipse
       style="fill:url(#linearGradient5317);fill-opacity:1;stroke:none;stroke-width:3.15991;stroke-dasharray:none;stroke-opacity:1"
       id="path234-3"
       cy="91.018372"
       cx="55.361053"
       rx="63.771271"
       ry="64.20163"
       transform="matrix(0.97316945,-0.23008958,0.22488463,0.9743854,0,0)" /></g><g
     inkscape:groupmode="layer"
     id="layer2"
     inkscape:label="Layer 2"><path
       style="fill:#ffcea2;stroke:none;stroke-width:0.264583px;stroke-linecap:butt;stroke-linejoin:miter;stroke-opacity:1;fill-opacity:1"
       d="M 46.567201,17.460869 35.987283,37.292684 c 0,0 -1.902082,8.47135 -0.99776,12.070826 0.904323,3.599474 8.390848,11.193312 8.725268,11.527732 0.334418,0.334417 2.087039,18.639316 2.087039,18.639316 l -2.788444,2.329392 -4.886791,2.324542 c 0,0 4.277662,27.777648 4.684948,27.859098 0.407287,0.0815 22.393005,14.27031 22.393005,14.27031 L 88.523674,112.78123 94.319864,89.109933 88.706803,83.87662 86.507459,82.328937 87.340764,47.549683 75.43725,20.739006 Z"
       id="path878" /></g><path
     style="fill:#000000;stroke-width:0.264583"
     d="M 59.209479,128.31678 C 46.91433,127.50825 34.96594,122.97275 24.84511,115.27239 c -3.73354,-2.84063 -4.07686,-3.21868 -3.94859,-4.34798 0.0615,-0.54176 0.34557,-3.11311 0.63118,-5.71411 0.28562,-2.601 0.71478,-5.518032 0.95369,-6.482292 1.70667,-6.88824 7.10816,-12.486259 14.08065,-14.592969 1.09119,-0.3297 2.03481,-0.48508 2.15805,-0.35534 0.12045,0.12679 0.61237,1.24256 1.09316,2.47949 2.73026,7.024089 8.22837,16.375111 13.22698,22.496011 2.692279,3.29676 7.275499,8.14532 9.308669,9.84758 l 1.28704,1.07757 3.44256,-3.41527 c 4.31869,-4.28445 8.19636,-8.88648 11.16337,-13.24872 l 2.30058,-3.382412 -1.95186,-0.9821 c -5.19369,-2.61324 -7.63483,-7.11196 -6.42394,-11.838509 0.5594,-2.18358 1.2529,-3.73251 2.59346,-5.79252 l 1.08448,-1.6665 -0.80145,-0.84704 c -1.34205,-1.4184 -1.44384,-1.82869 -1.48652,-5.99142 l -0.0399,-3.89039 1.68121,-1.83262 c 2.29453,-2.50116 5.03864,-6.67574 6.96322,-10.59303 1.47786,-3.00805 1.58987,-3.35977 1.42337,-4.47001 -0.0994,-0.66277 -0.72746,-2.29724 -1.39572,-3.63215 -2.31757,-4.62958 -7.10607,-8.533968 -12.58858,-10.264316 -1.48395,-0.468353 -3.82918,-1.20944 -5.21163,-1.646857 -3.08047,-0.974688 -7.15999,-2.960658 -9.47483,-4.6125 -3.163889,-2.2577 -6.098329,-5.640657 -7.200119,-8.300591 l -0.35492,-0.856851 -0.72943,2.797002 c -0.8833,3.387005 -2.05444,6.26868 -3.3811,8.319495 -1.09665,1.695259 -3.54713,4.042269 -4.22207,4.043807 -0.23892,5.29e-4 -0.81655,0.233997 -1.28363,0.518787 -3.11677,1.900394 -2.8043,9.426814 0.53684,12.930394 1.21903,1.2783 2.18938,1.712 3.4999,1.56428 l 1.11544,-0.12572 1.15286,2.54365 c 2.07008,4.56745 5.0242,9.1052 8.16426,12.54092 l 1.328879,1.45401 v 3.29686 c 0,1.81327 -0.13526,3.70158 -0.300583,4.19624 -0.672476,2.01214 -2.509416,3.1596 -7.533946,4.70616 -1.47134,0.45288 -2.8062,0.82342 -2.96637,0.82342 -0.16016,0 -0.41836,-0.50601 -0.57378,-1.12448 -0.49663,-1.97626 -2.9273,-8.88228 -4.63528,-13.16974 -2.69527,-6.7658 -3.30926,-9.8587 -3.49147,-17.58807 -0.19222,-8.15342 0.7368,-14.324976 3.26594,-21.695826 0.64911,-1.89177 1.5135,-4.511145 1.92085,-5.820833 2.37023,-7.620534 5.28573,-11.244791 9.04578,-11.244791 0.9499,0 2.0869,-0.288109 3.72769,-0.944574 8.695609,-3.4790548 17.546979,-3.5196228 24.366289,-0.111676 7.17264,3.584525 13.6139,11.881309 15.58551,20.075211 0.714,2.96735 0.76727,7.309379 0.1243,10.132709 l -0.46273,2.03188 0.67697,1.33595 c 3.8109,7.52044 4.17084,18.77847 0.91648,28.66513 -1.32706,4.03158 -4.02633,9.20145 -5.86157,11.22656 -3.59152,3.96311 -5.50588,7.826949 -5.67875,11.461719 -0.0982,2.06525 -0.0735,2.2071 0.3028,1.73652 0.73857,-0.92362 4.08637,-7.89358 5.15495,-10.732349 1.204,-3.19855 0.9129,-3.07828 4.39826,-1.81713 3.1592,1.14314 6.02607,2.93329 8.16878,5.100819 4.075051,4.12226 5.087941,7.12277 6.349471,18.809012 l 0.3713,3.43959 -1.23388,1.16551 c -0.67864,0.64103 -2.30545,1.96938 -3.61513,2.9519 -11.866221,8.90194 -27.228411,13.40249 -42.353091,12.40789 z"
     id="path2887" /></svg>
